<svg version="1.1" xmlns="http://www.w3.org/2000/svg" viewBox="0 63.9 710.1010101010102 276.19" style="max-height: 500px" width="710.1010101010102" height="276.19">
 <g class="layer">
  <title>Layer 1</title>
  <path transform="matrix(1 0 0 1 0 0)" id="svg_1" fill="#FCFCFC" d="m517.31,68.88c1.25,1.02 2.48,2.06 3.69,3.13c1.16,0.96 1.16,0.96 2.34,1.95c5.29,4.77 7.8,8.84 9.7,15.68c1.1,3.87 2.5,7.55 3.96,11.3c3.4,8.98 6.42,17.95 8.31,27.38c2.59,12.67 6.59,25.06 10.49,37.38c2.61,8.29 5.03,16.62 7.31,25.01c0.58,2.13 1.17,4.25 1.76,6.38c3.01,10.99 5.18,21.8 6.19,33.17c0.16,1.69 0.31,3.38 0.47,5.07c0.08,0.81 0.15,1.61 0.23,2.44c0.2,1.91 0.49,3.8 0.8,5.7c0.68,5.51 0.45,11.01 0.31,16.56c-0.07,5.51 0.34,10.7 1.14,16.15c1.71,12.65 1.11,25.5 0.88,38.23c-0.07,3.71 -0.11,7.41 -0.15,11.11c-0.03,2.88 -0.08,5.75 -0.13,8.63c-0.02,1.36 -0.04,2.73 -0.05,4.1c-0.02,1.9 -0.06,3.8 -0.1,5.7c-0.02,1.07 -0.03,2.15 -0.05,3.26c-0.47,3.16 -1.19,4.54 -3.41,6.8c-3.31,1.1 -5.75,1.12 -9.23,1.12c-1.32,0 -2.63,0.01 -3.98,0.01c-1.47,0 -2.94,-0.01 -4.4,-0.01c-1.55,0 -3.1,0 -4.66,0.01c-4.27,0 -8.55,0 -12.82,0c-4.61,-0.01 -9.22,0 -13.83,0c-9.04,0 -18.08,0 -27.12,0c-7.36,0 -14.72,0 -22.08,0c-1.05,0 -2.1,0 -3.18,0c-2.13,0 -4.26,0 -6.38,0c-20,0 -40,0 -59.99,-0.01c-17.1,0 -34.2,0 -51.3,0.01c-19.88,0 -39.76,0 -59.64,0c-2.13,0 -4.26,0 -6.39,0c-1.05,0 -2.1,0 -3.18,0c-7.32,0 -14.65,0 -21.97,0c-8.97,0 -17.94,0 -26.91,0c-4.56,0 -9.13,-0.01 -13.69,0c-16.98,0.01 -33.94,-0.06 -50.91,-0.58c-1.28,-0.04 -2.56,-0.08 -3.87,-0.12c-25.18,-0.86 -25.18,-0.86 -31.47,-5.43c-8.47,-9.75 -8.41,-18.77 -7.67,-31.07c0.15,-2.17 0.31,-4.34 0.47,-6.51c0.09,-1.16 0.17,-2.32 0.26,-3.52c0.17,-2.43 0.35,-4.87 0.54,-7.31c0.27,-3.72 0.54,-7.43 0.8,-11.15c0.17,-2.38 0.35,-4.76 0.53,-7.14c0.07,-1.1 0.15,-2.2 0.23,-3.33c0.72,-9.41 2.12,-17.39 6.59,-25.72c0.72,-1.39 1.43,-2.78 2.15,-4.17c0.53,-1.02 0.53,-1.02 1.07,-2.07c1.54,-3.02 2.98,-6.07 4.4,-9.14c0.46,-0.99 0.93,-1.99 1.4,-3.01c2.18,-5.09 3.33,-9 3.17,-14.57c0.07,-2.66 0.53,-5.1 1.04,-7.71c1.16,-6.78 1.33,-13.4 1.36,-20.27c0.02,-1.97 0.04,-3.94 0.07,-5.91c0.02,-2.06 0.03,-4.12 0.05,-6.18c0.06,-7.1 0.16,-14.21 0.26,-21.31c0.02,-1.04 0.02,-1.04 0.03,-2.11c0.24,-16.64 1.01,-33.21 2.25,-49.8c0.07,-1.04 0.13,-2.08 0.2,-3.15c1.9,-28.72 1.9,-28.72 12.83,-38.34c0.65,-0.5 1.3,-1 1.97,-1.52c0.69,-0.54 1.38,-1.09 2.1,-1.66c2.36,-1.66 4.03,-2 6.9,-2.34c0.99,-0.12 1.98,-0.24 3,-0.37c9.01,0.16 19.32,5.5 26,11.38c2.15,2.5 4.15,5.04 6.08,7.73c2.09,2.47 4.1,3.7 6.92,5.27c2.53,2.34 4.75,4.66 6.81,7.43c2.01,2.35 3.75,3.75 6.25,5.5c3.64,2.62 5.06,4.96 6.94,9.07c1.66,1.33 3.33,2.67 5,4c1.77,2.14 3.44,4.36 5.12,6.58c1.82,2.35 3.75,4.53 5.75,6.73c3.96,4.38 7.47,9.03 10.95,13.79c0.72,0.96 1.44,1.91 2.18,2.9c0.71,1.03 1.42,2.07 2.15,3.15c2.25,2.67 2.73,2.82 6.43,3.48c1.39,-0.02 2.77,-0.08 4.16,-0.15c0.74,-0.02 1.49,-0.04 2.27,-0.06c1.6,-0.03 3.2,-0.08 4.8,-0.14c4.22,-0.16 8.43,-0.21 12.64,-0.27c0.83,-0.01 1.67,-0.02 2.52,-0.03c6.62,-0.06 13.04,0.42 19.59,1.39c8.29,1.23 16.51,2.08 24.87,2.63c7.75,0.5 15.49,1.05 23.22,1.78c0.74,0.07 1.47,0.14 2.22,0.21c3.56,0.34 7.12,0.68 10.67,1.04c19.46,2.64 19.46,2.64 37.63,-2.55c3.26,-3.1 5.62,-6.07 6.83,-10.48c0.66,0 1.32,0 2,0c0.26,-0.74 0.53,-1.48 0.8,-2.24c1.18,-2.74 2.52,-4.71 4.32,-7.08c4.34,-6.07 7.45,-12.64 10.71,-19.32c2.21,-4.48 4.5,-8.93 6.79,-13.36c0.67,-1.31 0.67,-1.31 1.35,-2.65c2.56,-4.93 5.34,-9.36 8.81,-13.71c1.37,-1.69 1.37,-1.69 2.15,-4.21c1.7,-3.9 4.8,-6.76 8.07,-9.44c0.66,0 1.32,0 2,0c0.31,-0.86 0.31,-0.86 0.62,-1.75c2.26,-3.69 5.58,-5.81 9.77,-6.83c12.62,-2.02 21.73,2.23 31.92,9.46z"/>
  <path id="svg_2" fill="#100E0B" d="m517.31,68.88c1.25,1.02 2.48,2.06 3.69,3.13c1.16,0.96 1.16,0.96 2.34,1.95c5.29,4.77 7.8,8.84 9.7,15.68c1.1,3.87 2.5,7.55 3.96,11.3c3.4,8.98 6.42,17.95 8.31,27.38c2.59,12.67 6.59,25.06 10.49,37.38c2.61,8.29 5.03,16.62 7.31,25.01c0.58,2.13 1.17,4.25 1.76,6.38c3.01,10.99 5.18,21.8 6.19,33.17c0.16,1.69 0.31,3.38 0.47,5.07c0.08,0.81 0.15,1.61 0.23,2.44c0.2,1.91 0.49,3.8 0.8,5.7c0.68,5.51 0.45,11.01 0.31,16.56c-0.07,5.51 0.34,10.7 1.14,16.15c1.71,12.65 1.11,25.5 0.88,38.23c-0.07,3.71 -0.11,7.41 -0.15,11.11c-0.03,2.88 -0.08,5.75 -0.13,8.63c-0.02,1.36 -0.04,2.73 -0.05,4.1c-0.02,1.9 -0.06,3.8 -0.1,5.7c-0.02,1.07 -0.03,2.15 -0.05,3.26c-0.47,3.16 -1.19,4.54 -3.41,6.8c-3.31,1.1 -5.75,1.12 -9.23,1.12c-1.32,0 -2.63,0.01 -3.98,0.01c-1.47,0 -2.94,-0.01 -4.4,-0.01c-1.55,0 -3.1,0 -4.66,0.01c-4.27,0 -8.55,0 -12.82,0c-4.61,-0.01 -9.22,0 -13.83,0c-9.04,0 -18.08,0 -27.12,0c-7.36,0 -14.72,0 -22.08,0c-1.05,0 -2.1,0 -3.18,0c-2.13,0 -4.26,0 -6.38,0c-20,0 -40,0 -59.99,-0.01c-17.1,0 -34.2,0 -51.3,0.01c-19.88,0 -39.76,0 -59.64,0c-2.13,0 -4.26,0 -6.39,0c-1.05,0 -2.1,0 -3.18,0c-7.32,0 -14.65,0 -21.97,0c-8.97,0 -17.94,0 -26.91,0c-4.56,0 -9.13,-0.01 -13.69,0c-16.98,0.01 -33.94,-0.06 -50.91,-0.58c-1.28,-0.04 -2.56,-0.08 -3.87,-0.12c-25.18,-0.86 -25.18,-0.86 -31.47,-5.43c-8.47,-9.75 -8.41,-18.77 -7.67,-31.07c0.15,-2.17 0.31,-4.34 0.47,-6.51c0.09,-1.16 0.17,-2.32 0.26,-3.52c0.17,-2.43 0.35,-4.87 0.54,-7.31c0.27,-3.72 0.54,-7.43 0.8,-11.15c0.17,-2.38 0.35,-4.76 0.53,-7.14c0.07,-1.1 0.15,-2.2 0.23,-3.33c0.72,-9.41 2.12,-17.39 6.59,-25.72c0.72,-1.39 1.43,-2.78 2.15,-4.17c0.53,-1.02 0.53,-1.02 1.07,-2.07c1.54,-3.02 2.98,-6.07 4.4,-9.14c0.46,-0.99 0.93,-1.99 1.4,-3.01c2.18,-5.09 3.33,-9 3.17,-14.57c0.07,-2.66 0.53,-5.1 1.04,-7.71c1.16,-6.78 1.33,-13.4 1.36,-20.27c0.02,-1.97 0.04,-3.94 0.07,-5.91c0.02,-2.06 0.03,-4.12 0.05,-6.18c0.06,-7.1 0.16,-14.21 0.26,-21.31c0.02,-1.04 0.02,-1.04 0.03,-2.11c0.24,-16.64 1.01,-33.21 2.25,-49.8c0.07,-1.04 0.13,-2.08 0.2,-3.15c1.9,-28.72 1.9,-28.72 12.83,-38.34c0.65,-0.5 1.3,-1 1.97,-1.52c0.69,-0.54 1.38,-1.09 2.1,-1.66c2.36,-1.66 4.03,-2 6.9,-2.34c0.99,-0.12 1.98,-0.24 3,-0.37c9.01,0.16 19.32,5.5 26,11.38c2.15,2.5 4.15,5.04 6.08,7.73c2.09,2.47 4.1,3.7 6.92,5.27c2.53,2.34 4.75,4.66 6.81,7.43c2.01,2.35 3.75,3.75 6.25,5.5c3.64,2.62 5.06,4.96 6.94,9.07c1.66,1.33 3.33,2.67 5,4c1.77,2.14 3.44,4.36 5.12,6.58c1.82,2.35 3.75,4.53 5.75,6.73c3.96,4.38 7.47,9.03 10.95,13.79c0.72,0.96 1.44,1.91 2.18,2.9c0.71,1.03 1.42,2.07 2.15,3.15c2.25,2.67 2.73,2.82 6.43,3.48c1.39,-0.02 2.77,-0.08 4.16,-0.15c0.74,-0.02 1.49,-0.04 2.27,-0.06c1.6,-0.03 3.2,-0.08 4.8,-0.14c4.22,-0.16 8.43,-0.21 12.64,-0.27c0.83,-0.01 1.67,-0.02 2.52,-0.03c6.62,-0.06 13.04,0.42 19.59,1.39c8.29,1.23 16.51,2.08 24.87,2.63c7.75,0.5 15.49,1.05 23.22,1.78c0.74,0.07 1.47,0.14 2.22,0.21c3.56,0.34 7.12,0.68 10.67,1.04c19.46,2.64 19.46,2.64 37.63,-2.55c3.26,-3.1 5.62,-6.07 6.83,-10.48c0.66,0 1.32,0 2,0c0.26,-0.74 0.53,-1.48 0.8,-2.24c1.18,-2.74 2.52,-4.71 4.32,-7.08c4.34,-6.07 7.45,-12.64 10.71,-19.32c2.21,-4.48 4.5,-8.93 6.79,-13.36c0.67,-1.31 0.67,-1.31 1.35,-2.65c2.56,-4.93 5.34,-9.36 8.81,-13.71c1.37,-1.69 1.37,-1.69 2.15,-4.21c1.7,-3.9 4.8,-6.76 8.07,-9.44c0.66,0 1.32,0 2,0c0.31,-0.86 0.31,-0.86 0.62,-1.75c2.26,-3.69 5.58,-5.81 9.77,-6.83c12.62,-2.02 21.73,2.23 31.92,9.46zm-38.44,4.44c-1.01,1.53 -1.97,3.09 -2.87,4.69c-0.58,0.84 -1.15,1.68 -1.75,2.55c-3.16,4.69 -5.81,9.48 -8.25,14.57c-1.89,3.93 -3.89,7.16 -6.69,10.5c-3.13,3.8 -4.37,7.12 -5.59,11.84c-2.26,7.93 -6.91,14.35 -11.8,20.86c-2.23,3.1 -4.04,6.31 -5.84,9.68c-2.75,5.08 -5.5,8.5 -10.08,12c-0.66,0.98 -1.32,1.98 -2,3c-16.06,5.42 -36.55,0.93 -52.89,-0.84c-17.02,-1.84 -34.1,-3.1 -51.2,-3.82c-3,-0.14 -5.9,-0.34 -8.86,-0.86c-4.06,-0.64 -8.01,-0.63 -12.12,-0.61c-0.85,0 -1.71,0 -2.6,0.01c-9.79,0.06 -19.56,0.57 -29.33,1.12c-0.28,-0.75 -0.55,-1.5 -0.84,-2.27c-2.89,-6.79 -8.37,-12.21 -13.33,-17.56c-1.91,-2.27 -3.33,-4.63 -4.83,-7.17c-0.72,-0.73 -1.45,-1.45 -2.19,-2.19c-4.79,-4.79 -8.86,-10.23 -12.93,-15.63c-0.62,-0.72 -1.24,-1.44 -1.88,-2.18c-0.66,0 -1.32,0 -2,0c-0.23,-0.56 -0.45,-1.11 -0.68,-1.67c-1.73,-3.06 -3.94,-5.18 -6.45,-7.65c-0.49,-0.48 -0.98,-0.97 -1.49,-1.47c-3.42,-3.35 -6.95,-6.54 -10.6,-9.64c-1.81,-1.6 -3.48,-3.28 -5.16,-5.01c-2.25,-2.8 -2.25,-2.8 -4.62,-2.56c-0.21,-0.58 -0.42,-1.16 -0.63,-1.75c-2.37,-3.89 -6.36,-5.65 -10.19,-7.94c-2.18,-1.31 -2.18,-1.31 -3.18,-2.31c-4.43,-0.67 -9,-1.15 -12.99,1.14c-4.84,4.95 -3.29,11.21 -6.01,17.86c-2.72,6.65 -1.32,0 -2,0c-0.09,1.66 -0.09,1.66 -0.19,3.35c-0.08,1.47 -0.17,2.93 -0.25,4.4c-0.04,0.72 -0.08,1.45 -0.12,2.21c-0.33,5.59 -0.33,5.59 -0.95,8.03c-0.86,3.51 -0.71,7.12 -0.76,10.71c-0.01,0.88 -0.03,1.76 -0.05,2.67c-0.03,1.9 -0.07,3.81 -0.1,5.72c-0.05,3.03 -0.1,6.06 -0.16,9.08c-0.17,8.61 -0.32,17.22 -0.47,25.83c-0.09,5.27 -0.19,10.54 -0.3,15.81c-0.04,2 -0.07,4 -0.1,6c-0.3,18.97 -0.3,18.97 -2.12,27.85c-0.57,3.07 -0.63,6.06 -0.66,9.18c-0.1,9.14 -2.07,15.24 -6.77,23.16c-1.42,2.66 -2.78,5.36 -4.13,8.06c-0.51,1.02 -0.51,1.02 -1.04,2.06c-5.41,10.91 -7.79,20.83 -8.59,32.92c-0.06,0.96 -0.13,1.93 -0.19,2.92c-0.14,2.04 -0.28,4.07 -0.41,6.11c-0.2,3.09 -0.41,6.17 -0.62,9.26c-0.14,1.98 -0.27,3.97 -0.4,5.96c-0.06,0.91 -0.13,1.82 -0.19,2.75c-1.47,14.01 -1.47,14.01 4.34,26.03c2.7,2.33 4.03,2.51 7.55,2.72c1.14,0.07 2.28,0.14 3.46,0.22c1.93,0.08 1.93,0.08 3.9,0.17c1.4,0.08 2.8,0.15 4.2,0.23c19.02,0.93 38.09,1.03 57.12,1.24c12.53,0.15 25.05,0.34 37.57,0.81c20.82,0.77 41.66,1.19 62.49,1.6c1.68,0.03 1.68,0.03 3.39,0.06c39.87,0.79 79.73,1.07 119.6,1.06c3.3,0 6.6,0 9.91,0c30.36,0.01 60.69,-0.26 91.04,-1.18c2.41,-0.08 4.83,-0.15 7.25,-0.22c1.87,-0.05 3.75,-0.1 5.62,-0.16c0.82,-0.02 1.64,-0.04 2.48,-0.05c4.02,-0.17 4.02,-0.17 7.59,-1.86c6.06,-9.77 4.24,-25.52 4.24,-36.58c0.01,-2.26 0.02,-4.53 0.04,-6.8c0.33,-11.98 0.33,-11.98 -3.27,-23.2c-1.22,-2.73 -1.24,-4.93 -1.3,-7.91c-0.02,-1.14 -0.05,-2.29 -0.08,-3.46c-0.02,-1.22 -0.05,-2.44 -0.07,-3.7c-0.93,-31.09 -4.63,-62.96 -16.29,-92.04c-1.7,-4.32 -2.77,-8.42 -3.52,-13.02c-1,-5.55 -2.53,-10.59 -4.63,-15.82c-3.13,-7.83 -4.97,-15.75 -6.62,-24.01c-0.76,-3.74 -1.6,-7.46 -2.44,-11.17c-0.66,0 -1.32,0 -2,0c-0.08,-0.95 -0.17,-1.9 -0.25,-2.88c-0.71,-5.03 -2.78,-9.49 -4.75,-14.12c-0.44,-1.27 -0.44,-1.27 -0.88,-2.56c-3.32,-7.22 -12.42,-12.55 -19.12,-16.44c-6.94,-2.32 -18.82,-3.69 -24.13,2.31z"/>
  <path id="svg_3" fill="#0B0B0B" d="m234.78,224.66c2.15,0.02 4.3,0.02 6.44,0.01c6.36,0.02 12.41,0.17 18.59,1.81c4.67,1.1 13.02,0.81 14.25,1.83c0.62,0.51 16.77,-1.29 27.44,3.47c10.68,4.76 19.64,3.53 18.87,13.12c-0.77,9.59 -26.88,16.41 -42.09,16.36c-1.43,0 -2.85,0.01 -4.28,0.01c-2.98,0 -5.96,0 -8.94,-0.01c-3.78,-0.01 -7.55,-0.01 -11.32,0c-27.99,0.08 -27.99,0.08 -40.54,-1.79c-4.22,-0.62 -8.43,-0.84 -12.69,-1.03c-3.07,-0.54 -5,-1.6 -7.51,-3.44c-1.64,-4.05 -1.39,-5.91 0.08,-10.02c2.83,-6.16 4.54,-9.28 10.92,-11.98c2.16,-1.22 4.31,-2.47 6.46,-3.72c8.26,-4.17 15.15,-4.73 24.32,-4.62z"/>
  <path transform="matrix(1 0 0 1 0 0)" id="svg_4" fill="#0E0E0E" d="m441.88,227.63c3.37,0 6.74,-0.03 10.11,-0.06c3.27,-0.03 6.55,-0.03 9.82,-0.03c1.79,-0.02 1.79,-0.02 3.62,-0.04c7.12,0.04 12.35,1 18.57,4.5c0.99,0.52 1.98,1.03 3,1.56c2,1.44 2,1.44 3,4.44c0.71,4.46 0.79,6.7 -1.57,10.61c-6.48,8.35 -12.05,11.96 -22.43,13.39c-4.84,0.3 -9.67,0.33 -14.52,0.34c-1.38,0 -2.77,0.01 -4.16,0.02c-2.9,0.01 -5.8,0.01 -8.7,0.01c-3.68,0 -7.35,0.03 -11.03,0.06c-2.87,0.03 -5.74,0.03 -8.6,0.03c-2.01,0 -4.01,0.02 -6.01,0.05c-8.64,-0.05 -15.88,-1.52 -23.98,-4.51c-1,-0.36 -2,-0.73 -3.03,-1.11c-7.57,-2.79 -7.57,-2.79 -9.97,-5.89c-0.5,-4.49 -0.72,-6.81 1.63,-10.69c7.7,-7.5 7.7,-7.5 13.37,-8.31c0.33,-0.66 0.66,-1.32 1,-2c1.74,-0.4 1.74,-0.4 4.05,-0.62c0.87,-0.08 1.75,-0.16 2.65,-0.25c0.97,-0.07 1.94,-0.15 2.94,-0.23c1.52,-0.13 1.52,-0.13 3.08,-0.25c12.37,-0.93 24.76,-1.02 37.16,-1.02z"/>
  <path id="svg_5" fill="#BF5351" d="m498.85,104.73c3,0.38 4.18,0.94 6.15,3.27c3.6,6.32 5.16,12.26 6.5,19.38c0.42,2.15 0.84,4.3 1.26,6.44c0.21,1.06 0.42,2.11 0.63,3.19c0.54,2.64 1.13,5.25 1.78,7.86c2,8.05 3.25,15.84 3.7,24.13c0.05,0.87 0.07,0.5 0.15,2.63c-24.02,11.37 -57.22,-21.14 -54.02,-25.63c0.95,-1.72 1.89,-3.45 2.81,-5.18c2.65,-4.93 5.56,-9.63 8.6,-14.32c1.28,-2.02 2.46,-4.03 3.59,-6.12c2.62,-4.43 5.7,-8.43 9,-12.38c0.47,-0.57 0.95,-1.15 1.44,-1.74c2.62,-2.11 5.18,-1.67 8.41,-1.53z"/>
  <path id="svg_6" fill="#BF514F" d="m184.44,101.38c3.29,0.21 4.36,0.47 7.06,2.5c0.85,1.03 1.68,2.07 2.5,3.13c1.49,1.67 3,3.33 4.5,5c0.78,0.87 1.57,1.75 2.37,2.65c1.52,1.67 3.09,3.31 4.7,4.91c2.97,2.98 5.72,6.13 8.51,9.29c1.52,1.7 3.12,3.34 4.74,4.96c16.62,20.06 16.56,22 16.18,25.19c-3.36,3.24 -6.33,4.67 -10.82,5.81c-1.11,0.29 -2.23,0.58 -3.37,0.88c-1.73,0.43 -1.73,0.43 -3.49,0.87c-2.28,0.58 -4.55,1.17 -6.83,1.75c-1.09,0.28 -2.18,0.56 -3.31,0.85c-7.6,1.41 -7.6,1.41 -14.18,4.84c-5.12,0.25 -8.24,-0.02 -13,-2c-0.08,-1.2 -0.17,-2.39 -0.26,-3.63c-0.32,-4.46 -0.64,-8.93 -0.96,-13.4c-0.14,-1.92 -0.28,-3.85 -0.42,-5.78c-0.2,-2.78 -0.4,-5.56 -0.6,-8.35c-0.06,-0.85 -0.12,-1.7 -0.19,-2.57c-0.35,-4.77 -0.79,-9.52 -1.35,-14.26c-0.35,-3.26 -0.47,-6.49 -0.53,-9.76c-0.04,-1.26 -0.07,-2.51 -0.11,-3.8c0.67,-5.45 3.05,-9.18 8.86,-9.08z"/>
  <path id="svg_7" fill="#ffffff" d="m15.17,258.63c0.85,-0.01 1.7,-0.01 2.57,-0.02c1.39,0.01 1.39,0.01 2.81,0.02c0.98,0 1.96,-0.01 2.97,-0.01c3.24,-0.01 6.48,0.01 9.73,0.02c2.25,0 4.5,0 6.75,0c4.72,0 9.44,0.01 14.16,0.03c6.05,0.02 12.11,0.02 18.16,0.01c4.65,0 9.3,0.01 13.95,0.02c2.23,0 4.46,0 6.7,0c3.12,0 6.23,0.01 9.35,0.03c1.39,0 1.39,0 2.81,-0.01c1.27,0.01 1.27,0.01 2.58,0.02c1.1,0.01 1.1,0.01 2.23,0.01c2.44,0.3 4,0.91 6.06,2.25c1.44,3.32 1.44,3.32 2,7c-1.3,3 -2.06,4.54 -5,6c-3.08,0.11 -6.15,0.16 -9.23,0.17c-0.96,0 -1.92,0.01 -2.91,0.01c-3.18,0.02 -6.35,0.02 -9.53,0.03c-2.21,0 -4.41,0.01 -6.62,0.01c-4.63,0.02 -9.25,0.02 -13.88,0.02c-5.93,0.01 -11.87,0.03 -17.8,0.06c-4.55,0.02 -9.11,0.03 -13.67,0.03c-2.18,0 -4.37,0.01 -6.56,0.02c-3.06,0.02 -6.11,0.02 -9.17,0.01c-0.91,0.01 -1.81,0.02 -2.75,0.03c-4.77,-0.03 -8.03,-0.24 -11.88,-3.39c-1.52,-3.05 -1.23,-5.64 -1,-9c2.13,-2.87 3.66,-3.37 7.17,-3.37z"/>
  <path id="svg_8" fill="#ffffff" d="m679.06,247.69c0.86,-0.04 1.71,-0.07 2.6,-0.11c2.34,0.42 2.34,0.42 4.12,2.22c1.77,3.2 1.61,5.62 1.22,9.2c-2.97,4.13 -7.64,4.41 -12.34,5.41c-5.94,0.96 -11.81,1.03 -17.82,1.03c-1.99,0.02 -3.99,0.04 -5.98,0.07c-2.76,0.02 -5.52,0.03 -8.27,0.05c-4.83,0.02 -9.66,0.05 -14.48,0.1c-2.56,0.02 -5.12,0.04 -7.67,0.04c-7.05,0.06 -13.77,0.64 -20.71,1.85c-5.61,0.93 -10.56,0.98 -15.73,-1.55c-1.72,-2.77 -2.05,-4.38 -1.82,-7.62c0.94,-2.74 1.5,-3.64 3.82,-5.38c3.29,-0.69 3.29,-0.69 7.18,-1.12c1.28,-0.15 2.55,-0.3 3.86,-0.45c1.31,-0.14 2.61,-0.28 3.96,-0.43c1.11,-0.17 2.22,-0.33 3.37,-0.51c6.18,-0.77 12.39,-0.7 18.61,-0.77c1.35,-0.02 2.7,-0.04 4.04,-0.05c4.97,-0.07 9.93,-0.13 14.89,-0.19c4.21,-0.05 8.42,-0.11 12.64,-0.17c1.96,-0.03 3.93,-0.05 5.9,-0.07c1.19,-0.01 2.39,-0.03 3.62,-0.05c1.05,-0.01 2.1,-0.02 3.18,-0.04c4.03,-0.22 7.75,-1.34 11.81,-1.46z"/>
  <path id="svg_9" fill="#ffffff" d="m38,204c2.99,0.61 5.91,1.33 8.85,2.15c2.43,0.66 4.81,1.18 7.27,1.67c5.84,1.28 11.32,3.46 16.88,5.62c6.31,2.42 12.6,4.83 19.04,6.88c2.12,0.73 4.12,1.61 6.15,2.56c3.86,1.78 7.78,3.14 11.81,4.5c14.17,4.95 14.17,4.95 17,10.62c0.45,6.14 0.45,6.14 -1,8.94c-3.31,1.76 -6.41,1.73 -10,1.06c-2.32,-1.03 -4.42,-2.25 -6.59,-3.57c-6,-3.57 -12.14,-6.26 -18.97,-7.74c-5.32,-1.2 -9.86,-3.18 -14.75,-5.5c-9.71,-4.56 -19.74,-7.04 -30.12,-9.56c-3.44,-0.84 -6.85,-1.73 -10.26,-2.69c-0.95,-0.26 -1.9,-0.52 -2.88,-0.79c-3.13,-1.48 -4.55,-3.28 -6.43,-6.15c0.07,-2.9 0.49,-4.35 2.28,-6.62c3.36,-2.69 7.64,-1.8 11.72,-1.38z"/>
  <path id="svg_10" fill="#ffffff" d="m671,198c2.9,2.27 2.98,3.85 3.5,7.5c-0.5,3.5 -0.5,3.5 -2.42,5.5c-4.08,2.65 -8.28,4.01 -12.89,5.5c-7.12,2.29 -7.12,2.29 -13.92,5.38c-5.4,2.82 -11.15,4.82 -16.87,6.9c-1.94,0.71 -3.87,1.43 -5.81,2.15c-7.7,2.84 -15.36,5.15 -23.36,7c-3.48,1.15 -5.46,2.73 -8.23,5.07c-3.66,0.6 -5.26,0.48 -8.38,-1.56c-2.3,-3.46 -2.32,-5.36 -1.62,-9.44c6.7,-9.85 22.06,-11.66 32.96,-14.82c9.43,-2.75 17.98,-6.06 26.7,-10.57c3.7,-1.78 7.33,-2.94 11.29,-3.99c2.63,-0.8 4.75,-2.13 7.05,-3.62c3.91,-1.48 7.89,-1.33 12,-1z"/>
  <path id="svg_11" fill="#101010" d="m430,190c1.56,0.14 1.56,0.14 3.14,0.29c12.73,1.57 29.96,6.89 38.86,16.71c0.31,3.25 0.31,3.25 0,6c-6.51,1.66 -10.17,0.04 -16,-3c-1.42,-0.71 -2.83,-1.42 -4.25,-2.12c-0.65,-0.33 -1.3,-0.67 -1.96,-1c-1.51,-0.74 -3.05,-1.38 -4.6,-2c-2.19,-0.88 -2.19,-0.88 -5.19,-2.88c-2.92,-0.45 -5.86,-0.37 -8.81,-0.37c-0.8,-0.03 -1.59,-0.05 -2.41,-0.08c-5.47,-0.03 -8.41,0.92 -12.78,4.45c-1.18,0.86 -1.18,0.86 -2.38,1.75c-0.72,0.55 -1.44,1.11 -2.18,1.69c-0.77,0.59 -1.54,1.19 -2.34,1.81c-1.79,1.49 -3.27,2.99 -4.79,4.75c-2.31,2 -2.31,2 -5.5,1.94c-2.81,-0.94 -2.81,-0.94 -4.81,-2.94c-0.47,-2.28 -0.47,-2.28 0,-5c1.81,-2.1 3.48,-3.78 5.56,-5.56c0.52,-0.47 1.03,-0.94 1.56,-1.42c2.72,-2.42 5.43,-4.42 8.61,-6.19c3.39,-1.71 3.39,-1.71 6.02,-4.58c4.77,-3.3 8.62,-2.78 14.25,-2.25z"/>
  <path id="svg_12" fill="#131313" d="m342.75,290.38c4.17,0.8 5.46,2.48 8.25,5.55c2.98,3.09 6.36,5.59 9.77,8.18c2.14,1.82 3.58,3.64 5.23,5.9c2.46,1.64 2.46,1.64 5,3c0.99,0.66 1.98,1.32 3,2c0.38,3 0.38,3 0,6c-3.28,2.18 -4.2,2.63 -8,2c-2.58,-2.17 -2.58,-2.17 -5.25,-5.07c-8.35,-8.86 -8.35,-8.86 -18.75,-14.93c-2.54,1.15 -2.54,1.15 -5,3c-4.73,3.26 -9.7,4.27 -15.21,5.46c-3.98,0.91 -6.65,1.95 -9.79,4.54c-3.13,0.31 -3.13,0.31 -6,0c-0.66,-0.67 -1.32,-1.33 -2,-2c0.09,-3.31 0.63,-4.64 3.01,-6.95c3.73,-2.56 7.51,-4.01 11.74,-5.55c1.61,-0.61 3.22,-1.22 4.83,-1.83c0.77,-0.29 1.53,-0.58 2.32,-0.88c6.84,-2.34 6.84,-2.34 12.65,-6.37c1.45,-1.42 1.45,-1.42 4.2,-2.05z"/>
  <path transform="translate(266,237)" id="svg_13" fill="#EAEAEA" d="m0,0c7.95,-0.29 15.53,0.59 23.38,1.81c1.16,0.17 2.32,0.33 3.51,0.5c1.12,0.18 2.23,0.35 3.38,0.52c1.01,0.15 2.01,0.31 3.05,0.46c2.85,0.76 4.47,1.79 6.68,3.71c-0.33,0.99 -0.66,1.98 -1,3c-0.99,0.33 -1.98,0.66 -3,1c-0.33,0.66 -0.66,1.32 -1,2c-7.79,2.37 -15.41,2.27 -23.5,2.19c-1.29,0 -2.57,0 -3.9,0c-9.46,-0.05 -9.46,-0.05 -10.6,-1.19c-0.45,-5.62 0.58,-9.06 3,-14z"/>
  <path transform="translate(240,234)" id="svg_14" fill="#EDEDED" d="m0,0c0,5.61 0,11.22 0,17c-11.96,0.39 -23.22,-1.1 -35,-3c0,-1.65 0,-3.3 0,-5c1.39,-0.82 2.79,-1.63 4.19,-2.44c0.77,-0.45 1.55,-0.9 2.35,-1.37c2.51,-1.21 4.72,-1.77 7.46,-2.19c0,-0.66 0,-1.32 0,-2c6.98,-1.33 13.91,-1.07 21,-1z"/>
  <path id="svg_16" fill="#C05756" d="m332.4,260.85c5.48,0.06 10.76,0.73 16.16,1.59c0.9,0.13 1.8,0.27 2.73,0.41c6.57,1.01 6.57,1.01 7.71,2.15c0.04,2.34 0.04,4.67 0,7c-2.31,0.66 -4.62,1.32 -7,2c0,0.66 0,1.32 0,2c-1.58,1.73 -1.58,1.73 -3.69,3.63c-0.68,0.63 -1.37,1.26 -2.07,1.91c-2.74,1.79 -4.04,2.05 -7.24,1.46c-2.02,-1.68 -2.02,-1.68 -3.81,-3.87c-0.61,-0.72 -1.21,-1.44 -1.84,-2.18c-1.35,-1.95 -1.35,-1.95 -1.35,-3.95c-0.64,-0.31 -1.28,-0.62 -1.94,-0.94c-2.06,-1.06 -2.06,-1.06 -3.06,-2.06c-0.14,-1.81 -0.14,-1.81 -0.13,-4c0,-0.72 0,-1.44 -0.01,-2.19c0.27,-3.6 2.44,-2.95 5.54,-2.96z"/>
  <path transform="translate(429,237)" id="svg_17" fill="#E7E7E7" d="m0,0c0,5.28 0,10.56 0,16c-25.77,0.29 -25.77,0.29 -34,-4c-1.99,-0.69 -3.99,-1.36 -6,-2c1,-3 1,-3 3.96,-4.62c4.47,-1.75 8.97,-2.09 13.73,-2.44c1.67,-0.13 3.34,-0.27 5.01,-0.41c0.73,-0.06 1.46,-0.11 2.21,-0.17c13.81,-2.4 13.81,-2.4 15.09,-2.36z"/>
  <path transform="translate(229.6640625,205.72210693359375)" id="svg_18" fill="#0F0F0F" d="m0,0c1.16,0.01 1.16,0.01 2.34,0.01c0.79,0 1.58,0 2.39,0c1.68,0 3.35,0 5.03,0.01c2.57,0.01 5.13,0 7.7,-0.02c1.63,0.01 3.25,0.01 4.88,0.01c0.77,0 1.54,-0.01 2.33,-0.01c5.44,0.05 5.44,0.05 7.67,2.28c0.31,3 0.31,3 0,6c-3.71,2.47 -6.59,2.3 -10.88,2.3c-0.77,0 -1.54,0.01 -2.33,0.01c-1.62,0.01 -3.24,0.01 -4.86,0c-2.49,0 -4.98,0.02 -7.46,0.05c-1.58,0 -3.15,0 -4.73,0c-1.12,0.01 -1.12,0.01 -2.26,0.03c-2.09,-0.02 -2.09,-0.02 -5.48,-0.39c-2.15,-3.23 -2.39,-4.27 -2,-8c2.54,-2.55 4.19,-2.25 7.66,-2.28z"/>
  <path id="svg_19" fill="#F3F3F3" d="m452,237c3.38,-0.08 6.75,-0.14 10.13,-0.19c1.42,-0.04 1.42,-0.04 2.88,-0.07c5.46,-0.06 9.24,0.22 13.99,3.26c-0.36,6.42 -0.36,6.42 -3.12,8.94c-14.5,3.06 -19.12,3.06 -23.88,3.06c0,-4.95 0,-9.9 0,-15z"/>
  <path transform="translate(573,286)" id="svg_26" fill="#1A0900" d="m0,0c0.33,0 0.66,0 1,0c0.07,8.28 0.12,16.55 0.16,24.83c0.01,3.84 0.03,7.68 0.07,11.52c0.03,3.71 0.05,7.42 0.05,11.13c0.01,1.42 0.02,2.83 0.04,4.24c0.02,1.99 0.02,3.97 0.02,5.95c0.01,1.13 0.01,2.26 0.02,3.42c-0.4,3.21 -1.2,4.56 -3.36,6.91c-0.99,-0.33 -1.98,-0.66 -3,-1c0.99,-0.5 0.99,-0.5 2,-1c0.37,-2.33 0.71,-4.66 1,-7c0.5,-0.49 0.5,-0.49 1,-1c0.12,-1.81 0.18,-3.62 0.21,-5.44c0.02,-1.16 0.04,-2.32 0.06,-3.52c0.01,-1.26 0.03,-2.52 0.05,-3.83c0.02,-1.28 0.04,-2.57 0.06,-3.89c0.05,-3.43 0.1,-6.85 0.15,-10.28c0.05,-3.49 0.11,-6.98 0.16,-10.47c0.11,-6.86 0.21,-13.71 0.31,-20.57z"/>
  <path transform="translate(180,143)" id="svg_31" fill="#B75555" d="m0,0c0.33,0 0.66,0 1,0c0.66,9.24 1.32,18.48 2,28c2.64,0.66 5.28,1.32 8,2c0,-0.66 0,-1.32 0,-2c1.98,0 3.96,0 6,0c-3.17,3.17 -5.75,3.35 -10,3.4c-2.74,-0.55 -4.05,-1.4 -6,-3.4c-0.61,-2.61 -0.61,-2.61 -0.75,-5.75c-0.06,-1.14 -0.11,-2.29 -0.17,-3.46c-0.13,-6.27 -0.16,-12.52 -0.08,-18.79z"/>
  <path transform="translate(335.125,262.4375)" id="svg_56" fill="#B85C5F" d="m0,0c1.1,0.1 2.19,0.2 3.32,0.31c0.84,0.08 1.69,0.17 2.56,0.25c0,0.33 0,0.66 0,1c-4.66,0.84 -8.38,1.02 -13.01,0c0.34,2.31 0.67,4.62 1,7c-0.66,-0.33 -1.32,-0.66 -2,-1c0,-2.31 0,-4.62 0,-7c2.84,-1.42 5,-0.86 8.13,-0.56z"/>
  <path transform="translate(191,171)" id="svg_85" fill="#BC6467" d="m0,0c1.98,0 3.96,0 6,0c-1.9,1.9 -3.33,2.94 -6.05,3.2c-1.98,-0.01 -3.97,-0.1 -5.95,-0.2c0,-0.33 0,-0.66 0,-1c1.98,0 3.96,0 6,0c0,-0.66 0,-1.32 0,-2z"/>
  <path transform="translate(516,70)" id="svg_88" fill="#201702" d="m0,0c2.89,0.4 3.82,0.79 5.75,3.06c0.41,0.64 0.83,1.28 1.25,1.94c-0.99,0.33 -1.98,0.66 -3,1c-1.32,-1.98 -2.64,-3.96 -4,-6z"/>
 </g>
</svg>